# xmcd
#
# Track frame offsets:
#	150
#	15096
#	30814
#	44257
#	61619
#	77002
#	92722
#	108965
#	123694
#	148271
#
# Disc length: 2183 seconds
#
# Revision: 8
# Processed by: cddbd v1.5.2PL0 Copyright (c) Steve Scherf et al.
# Submitted via: EasyCDDAExtractor 12.0.1.1
#
DISCID=6f08850a
DTITLE=Traveling Wilburys - Traveling Wilburys Vol. 1
DYEAR=1988
DGENRE=Blues Rock
TTITLE0=Handle With Care
TTITLE1=Dirty World
TTITLE2=Rattled
TTITLE3=Last Night
TTITLE4=Not Alone Any More
TTITLE5=Congratulations
TTITLE6=Heading For The Light
TTITLE7=Margarita
TTITLE8=Tweeter And The Monkey Man
TTITLE9=End Of The Line
EXTD=YEAR: 1988
EXTT0=
EXTT1=
EXTT2=
EXTT3=
EXTT4=
EXTT5=
EXTT6=
EXTT7=
EXTT8=
EXTT9=
PLAYORDER=
